<svg width="200" height="200" viewBox="0 0 200 200" fill="none" xmlns="http://www.w3.org/2000/svg">
  <!-- Grid icon -->
  <rect x="40" y="40" width="45" height="45" rx="4" stroke="#2563eb" stroke-width="3" fill="none"/>
  <rect x="95" y="40" width="45" height="45" rx="4" stroke="#2563eb" stroke-width="3" fill="none"/>
  <rect x="40" y="95" width="45" height="45" rx="4" stroke="#2563eb" stroke-width="3" fill="none"/>
  <rect x="95" y="95" width="45" height="45" rx="4" stroke="#2563eb" stroke-width="3" fill="none"/>
  <rect x="150" y="40" width="10" height="10" rx="2" fill="#2563eb"/>
  <rect x="150" y="75" width="10" height="10" rx="2" fill="#2563eb"/>
  <rect x="150" y="95" width="10" height="10" rx="2" fill="#2563eb"/>
  <rect x="150" y="130" width="10" height="10" rx="2" fill="#2563eb"/>
  <rect x="40" y="150" width="10" height="10" rx="2" fill="#2563eb"/>
  <rect x="75" y="150" width="10" height="10" rx="2" fill="#2563eb"/>
  <rect x="95" y="150" width="10" height="10" rx="2" fill="#2563eb"/>
  <rect x="130" y="150" width="10" height="10" rx="2" fill="#2563eb"/>
</svg>
