<svg xmlns="http://www.w3.org/2000/svg" viewBox="0 0 1600 900" preserveAspectRatio="xMidYMax slice" aria-hidden="true">
  <defs>
    <linearGradient id="burstGrad" x1="800" y1="940" x2="800" y2="0" gradientUnits="userSpaceOnUse">
      <stop offset="0%" stop-color="#4A7BF7" stop-opacity="1"></stop>
      <stop offset="55%" stop-color="#4A7BF7" stop-opacity="0.55"></stop>
      <stop offset="100%" stop-color="#4A7BF7" stop-opacity="0.15"></stop>
    </linearGradient>
  </defs>
  <g>
<line x1="800" y1="940" x2="150.5" y2="602.7" stroke="url(#burstGrad)" stroke-width="0.96" opacity="0.71" stroke-linecap="round"></line>
<line x1="800" y1="940" x2="707.0" y2="-30.9" stroke="url(#burstGrad)" stroke-width="0.65" opacity="0.35" stroke-linecap="round"></line>
<line x1="800" y1="940" x2="16.0" y2="797.3" stroke="url(#burstGrad)" stroke-width="0.93" opacity="0.26" stroke-linecap="round"></line>
<line x1="800" y1="940" x2="1042.0" y2="1207.1" stroke="url(#burstGrad)" stroke-width="1.00" opacity="0.24" stroke-linecap="round"></line>
<line x1="800" y1="940" x2="1272.6" y2="890.1" stroke="url(#burstGrad)" stroke-width="1.02" opacity="0.60" stroke-linecap="round"></line>
<line x1="800" y1="940" x2="1257.2" y2="583.5" stroke="url(#burstGrad)" stroke-width="0.59" opacity="0.48" stroke-linecap="round"></line>
<line x1="800" y1="940" x2="1222.4" y2="653.0" stroke="url(#burstGrad)" stroke-width="0.87" opacity="0.37" stroke-linecap="round"></line>
<line x1="800" y1="940" x2="-123.3" y2="1455.8" stroke="url(#burstGrad)" stroke-width="1.03" opacity="0.50" stroke-linecap="round"></line>
<line x1="800" y1="940" x2="279.1" y2="546.1" stroke="url(#burstGrad)" stroke-width="0.61" opacity="0.35" stroke-linecap="round"></line>
<line x1="800" y1="940" x2="1379.7" y2="328.2" stroke="url(#burstGrad)" stroke-width="1.08" opacity="0.49" stroke-linecap="round"></line>
<line x1="800" y1="940" x2="1046.8" y2="-347.0" stroke="url(#burstGrad)" stroke-width="0.63" opacity="0.58" stroke-linecap="round"></line>
<line x1="800" y1="940" x2="336.3" y2="206.4" stroke="url(#burstGrad)" stroke-width="0.94" opacity="0.37" stroke-linecap="round"></line>
<line x1="800" y1="940" x2="1617.2" y2="116.7" stroke="url(#burstGrad)" stroke-width="1.02" opacity="0.57" stroke-linecap="round"></line>
<line x1="800" y1="940" x2="1711.7" y2="1958.6" stroke="url(#burstGrad)" stroke-width="0.86" opacity="0.23" stroke-linecap="round"></line>
<line x1="800" y1="940" x2="-283.1" y2="956.5" stroke="url(#burstGrad)" stroke-width="0.97" opacity="0.49" stroke-linecap="round"></line>
<line x1="800" y1="940" x2="674.6" y2="439.2" stroke="url(#burstGrad)" stroke-width="0.66" opacity="0.56" stroke-linecap="round"></line>
<line x1="800" y1="940" x2="-199.8" y2="1584.4" stroke="url(#burstGrad)" stroke-width="0.59" opacity="0.50" stroke-linecap="round"></line>
<line x1="800" y1="940" x2="-223.7" y2="233.6" stroke="url(#burstGrad)" stroke-width="0.66" opacity="0.68" stroke-linecap="round"></line>
<line x1="800" y1="940" x2="-121.1" y2="951.5" stroke="url(#burstGrad)" stroke-width="1.05" opacity="0.40" stroke-linecap="round"></line>
<line x1="800" y1="940" x2="411.2" y2="1217.8" stroke="url(#burstGrad)" stroke-width="0.87" opacity="0.25" stroke-linecap="round"></line>
<line x1="800" y1="940" x2="2078.8" y2="1233.0" stroke="url(#burstGrad)" stroke-width="1.07" opacity="0.32" stroke-linecap="round"></line>
<line x1="800" y1="940" x2="235.7" y2="12.4" stroke="url(#burstGrad)" stroke-width="1.04" opacity="0.62" stroke-linecap="round"></line>
<line x1="800" y1="940" x2="2072.2" y2="1214.7" stroke="url(#burstGrad)" stroke-width="0.55" opacity="0.53" stroke-linecap="round"></line>
<line x1="800" y1="940" x2="1689.4" y2="74.0" stroke="url(#burstGrad)" stroke-width="1.05" opacity="0.49" stroke-linecap="round"></line>
<line x1="800" y1="940" x2="112.6" y2="138.1" stroke="url(#burstGrad)" stroke-width="0.58" opacity="0.60" stroke-linecap="round"></line>
<line x1="800" y1="940" x2="222.7" y2="792.7" stroke="url(#burstGrad)" stroke-width="0.69" opacity="0.20" stroke-linecap="round"></line>
<line x1="800" y1="940" x2="1718.1" y2="777.0" stroke="url(#burstGrad)" stroke-width="0.56" opacity="0.58" stroke-linecap="round"></line>
<line x1="800" y1="940" x2="1385.6" y2="524.9" stroke="url(#burstGrad)" stroke-width="0.73" opacity="0.31" stroke-linecap="round"></line>
<line x1="800" y1="940" x2="1944.1" y2="716.5" stroke="url(#burstGrad)" stroke-width="0.69" opacity="0.31" stroke-linecap="round"></line>
<line x1="800" y1="940" x2="-320.6" y2="686.0" stroke="url(#burstGrad)" stroke-width="0.65" opacity="0.54" stroke-linecap="round"></line>
<line x1="800" y1="940" x2="1554.5" y2="301.5" stroke="url(#burstGrad)" stroke-width="0.90" opacity="0.24" stroke-linecap="round"></line>
<line x1="800" y1="940" x2="-91.0" y2="443.3" stroke="url(#burstGrad)" stroke-width="1.06" opacity="0.27" stroke-linecap="round"></line>
<line x1="800" y1="940" x2="1393.3" y2="144.5" stroke="url(#burstGrad)" stroke-width="0.72" opacity="0.34" stroke-linecap="round"></line>
<line x1="800" y1="940" x2="60.1" y2="686.5" stroke="url(#burstGrad)" stroke-width="1.04" opacity="0.36" stroke-linecap="round"></line>
<line x1="800" y1="940" x2="1794.1" y2="1095.9" stroke="url(#burstGrad)" stroke-width="0.64" opacity="0.58" stroke-linecap="round"></line>
<line x1="800" y1="940" x2="-169.1" y2="1674.8" stroke="url(#burstGrad)" stroke-width="0.73" opacity="0.47" stroke-linecap="round"></line>
<line x1="800" y1="940" x2="1803.3" y2="1041.9" stroke="url(#burstGrad)" stroke-width="1.09" opacity="0.61" stroke-linecap="round"></line>
<line x1="800" y1="940" x2="1752.4" y2="471.2" stroke="url(#burstGrad)" stroke-width="1.05" opacity="0.65" stroke-linecap="round"></line>
<line x1="800" y1="940" x2="664.5" y2="6.4" stroke="url(#burstGrad)" stroke-width="0.62" opacity="0.34" stroke-linecap="round"></line>
<line x1="800" y1="940" x2="1093.1" y2="478.2" stroke="url(#burstGrad)" stroke-width="1.03" opacity="0.40" stroke-linecap="round"></line>
<line x1="800" y1="940" x2="1911.3" y2="991.5" stroke="url(#burstGrad)" stroke-width="0.59" opacity="0.42" stroke-linecap="round"></line>
<line x1="800" y1="940" x2="1168.1" y2="102.6" stroke="url(#burstGrad)" stroke-width="0.92" opacity="0.45" stroke-linecap="round"></line>
<line x1="800" y1="940" x2="1600.5" y2="-152.3" stroke="url(#burstGrad)" stroke-width="0.79" opacity="0.24" stroke-linecap="round"></line>
<line x1="800" y1="940" x2="1894.1" y2="931.0" stroke="url(#burstGrad)" stroke-width="0.86" opacity="0.40" stroke-linecap="round"></line>
<line x1="800" y1="940" x2="950.9" y2="-130.2" stroke="url(#burstGrad)" stroke-width="1.01" opacity="0.21" stroke-linecap="round"></line>
<line x1="800" y1="940" x2="1185.2" y2="928.8" stroke="url(#burstGrad)" stroke-width="0.89" opacity="0.62" stroke-linecap="round"></line>
<line x1="800" y1="940" x2="15.7" y2="444.5" stroke="url(#burstGrad)" stroke-width="0.71" opacity="0.55" stroke-linecap="round"></line>
<line x1="800" y1="940" x2="-451.7" y2="511.9" stroke="url(#burstGrad)" stroke-width="0.86" opacity="0.67" stroke-linecap="round"></line>
<line x1="800" y1="940" x2="1381.6" y2="581.5" stroke="url(#burstGrad)" stroke-width="0.73" opacity="0.41" stroke-linecap="round"></line>
<line x1="800" y1="940" x2="184.8" y2="-272.6" stroke="url(#burstGrad)" stroke-width="0.66" opacity="0.28" stroke-linecap="round"></line>
<line x1="800" y1="940" x2="35.0" y2="680.5" stroke="url(#burstGrad)" stroke-width="0.97" opacity="0.69" stroke-linecap="round"></line>
<line x1="800" y1="940" x2="1681.4" y2="776.7" stroke="url(#burstGrad)" stroke-width="0.81" opacity="0.66" stroke-linecap="round"></line>
<line x1="800" y1="940" x2="534.7" y2="307.8" stroke="url(#burstGrad)" stroke-width="0.65" opacity="0.62" stroke-linecap="round"></line>
<line x1="800" y1="940" x2="1387.2" y2="1898.5" stroke="url(#burstGrad)" stroke-width="0.74" opacity="0.22" stroke-linecap="round"></line>
<line x1="800" y1="940" x2="706.0" y2="-75.4" stroke="url(#burstGrad)" stroke-width="1.09" opacity="0.21" stroke-linecap="round"></line>
<line x1="800" y1="940" x2="-402.5" y2="275.5" stroke="url(#burstGrad)" stroke-width="0.64" opacity="0.45" stroke-linecap="round"></line>
<line x1="800" y1="940" x2="-497.8" y2="955.1" stroke="url(#burstGrad)" stroke-width="0.68" opacity="0.31" stroke-linecap="round"></line>
<line x1="800" y1="940" x2="1800.3" y2="770.2" stroke="url(#burstGrad)" stroke-width="0.97" opacity="0.69" stroke-linecap="round"></line>
<line x1="800" y1="940" x2="1460.8" y2="483.7" stroke="url(#burstGrad)" stroke-width="0.58" opacity="0.26" stroke-linecap="round"></line>
<line x1="800" y1="940" x2="478.2" y2="-345.0" stroke="url(#burstGrad)" stroke-width="0.74" opacity="0.37" stroke-linecap="round"></line>
<line x1="800" y1="940" x2="548.9" y2="1691.4" stroke="url(#burstGrad)" stroke-width="0.96" opacity="0.38" stroke-linecap="round"></line>
<line x1="800" y1="940" x2="1039.5" y2="739.0" stroke="url(#burstGrad)" stroke-width="0.98" opacity="0.56" stroke-linecap="round"></line>
<line x1="800" y1="940" x2="-331.1" y2="733.1" stroke="url(#burstGrad)" stroke-width="0.87" opacity="0.35" stroke-linecap="round"></line>
<line x1="800" y1="940" x2="1752.6" y2="211.5" stroke="url(#burstGrad)" stroke-width="1.01" opacity="0.34" stroke-linecap="round"></line>
<line x1="800" y1="940" x2="524.3" y2="577.0" stroke="url(#burstGrad)" stroke-width="0.69" opacity="0.20" stroke-linecap="round"></line>
<line x1="800" y1="940" x2="1176.8" y2="1277.8" stroke="url(#burstGrad)" stroke-width="1.03" opacity="0.21" stroke-linecap="round"></line>
<line x1="800" y1="940" x2="2050.7" y2="944.2" stroke="url(#burstGrad)" stroke-width="1.07" opacity="0.54" stroke-linecap="round"></line>
<line x1="800" y1="940" x2="670.9" y2="95.0" stroke="url(#burstGrad)" stroke-width="0.76" opacity="0.23" stroke-linecap="round"></line>
<line x1="800" y1="940" x2="1118.3" y2="722.4" stroke="url(#burstGrad)" stroke-width="0.63" opacity="0.45" stroke-linecap="round"></line>
<line x1="800" y1="940" x2="-96.7" y2="724.5" stroke="url(#burstGrad)" stroke-width="1.10" opacity="0.36" stroke-linecap="round"></line>
<line x1="800" y1="940" x2="1975.2" y2="548.4" stroke="url(#burstGrad)" stroke-width="0.61" opacity="0.62" stroke-linecap="round"></line>
<line x1="800" y1="940" x2="1358.9" y2="170.8" stroke="url(#burstGrad)" stroke-width="0.71" opacity="0.47" stroke-linecap="round"></line>
<line x1="800" y1="940" x2="212.9" y2="1696.4" stroke="url(#burstGrad)" stroke-width="1.05" opacity="0.33" stroke-linecap="round"></line>
<line x1="800" y1="940" x2="1017.9" y2="120.3" stroke="url(#burstGrad)" stroke-width="0.73" opacity="0.21" stroke-linecap="round"></line>
<line x1="800" y1="940" x2="802.3" y2="188.6" stroke="url(#burstGrad)" stroke-width="0.69" opacity="0.23" stroke-linecap="round"></line>
<line x1="800" y1="940" x2="-105.4" y2="1834.4" stroke="url(#burstGrad)" stroke-width="0.87" opacity="0.38" stroke-linecap="round"></line>
<line x1="800" y1="940" x2="676.7" y2="-344.2" stroke="url(#burstGrad)" stroke-width="1.07" opacity="0.61" stroke-linecap="round"></line>
<line x1="800" y1="940" x2="-2.3" y2="609.2" stroke="url(#burstGrad)" stroke-width="1.06" opacity="0.24" stroke-linecap="round"></line>
<line x1="800" y1="940" x2="-207.9" y2="791.8" stroke="url(#burstGrad)" stroke-width="1.08" opacity="0.48" stroke-linecap="round"></line>
<line x1="800" y1="940" x2="723.3" y2="111.6" stroke="url(#burstGrad)" stroke-width="1.05" opacity="0.67" stroke-linecap="round"></line>
<line x1="800" y1="940" x2="919.6" y2="-206.6" stroke="url(#burstGrad)" stroke-width="0.68" opacity="0.44" stroke-linecap="round"></line>
<line x1="800" y1="940" x2="703.6" y2="50.2" stroke="url(#burstGrad)" stroke-width="1.07" opacity="0.57" stroke-linecap="round"></line>
<line x1="800" y1="940" x2="794.6" y2="-147.3" stroke="url(#burstGrad)" stroke-width="0.62" opacity="0.34" stroke-linecap="round"></line>
<line x1="800" y1="940" x2="972.9" y2="339.4" stroke="url(#burstGrad)" stroke-width="0.61" opacity="0.24" stroke-linecap="round"></line>
<line x1="800" y1="940" x2="1463.7" y2="379.6" stroke="url(#burstGrad)" stroke-width="0.81" opacity="0.62" stroke-linecap="round"></line>
<line x1="800" y1="940" x2="679.8" y2="-163.3" stroke="url(#burstGrad)" stroke-width="0.82" opacity="0.69" stroke-linecap="round"></line>
<line x1="800" y1="940" x2="-337.4" y2="1007.8" stroke="url(#burstGrad)" stroke-width="0.79" opacity="0.71" stroke-linecap="round"></line>
<line x1="800" y1="940" x2="1628.4" y2="683.1" stroke="url(#burstGrad)" stroke-width="0.78" opacity="0.58" stroke-linecap="round"></line>
<line x1="800" y1="940" x2="277.8" y2="291.4" stroke="url(#burstGrad)" stroke-width="1.07" opacity="0.57" stroke-linecap="round"></line>
<line x1="800" y1="940" x2="502.3" y2="380.9" stroke="url(#burstGrad)" stroke-width="0.64" opacity="0.68" stroke-linecap="round"></line>
<line x1="800" y1="940" x2="1037.5" y2="170.0" stroke="url(#burstGrad)" stroke-width="0.95" opacity="0.39" stroke-linecap="round"></line>
<line x1="800" y1="940" x2="1845.9" y2="661.7" stroke="url(#burstGrad)" stroke-width="0.77" opacity="0.47" stroke-linecap="round"></line>
<line x1="800" y1="940" x2="1556.2" y2="1635.5" stroke="url(#burstGrad)" stroke-width="0.65" opacity="0.66" stroke-linecap="round"></line>
<line x1="800" y1="940" x2="330.3" y2="668.4" stroke="url(#burstGrad)" stroke-width="0.73" opacity="0.57" stroke-linecap="round"></line>
<line x1="800" y1="940" x2="54.3" y2="476.7" stroke="url(#burstGrad)" stroke-width="0.97" opacity="0.36" stroke-linecap="round"></line>
<line x1="800" y1="940" x2="1969.7" y2="977.4" stroke="url(#burstGrad)" stroke-width="0.79" opacity="0.61" stroke-linecap="round"></line>
<line x1="800" y1="940" x2="470.8" y2="-154.2" stroke="url(#burstGrad)" stroke-width="0.61" opacity="0.53" stroke-linecap="round"></line>
<line x1="800" y1="940" x2="-216.6" y2="692.7" stroke="url(#burstGrad)" stroke-width="1.08" opacity="0.73" stroke-linecap="round"></line>
<line x1="800" y1="940" x2="1856.7" y2="672.5" stroke="url(#burstGrad)" stroke-width="1.00" opacity="0.49" stroke-linecap="round"></line>
<line x1="800" y1="940" x2="-506.1" y2="1220.9" stroke="url(#burstGrad)" stroke-width="1.10" opacity="0.20" stroke-linecap="round"></line>
<line x1="800" y1="940" x2="841.1" y2="450.5" stroke="url(#burstGrad)" stroke-width="1.05" opacity="0.44" stroke-linecap="round"></line>
<line x1="800" y1="940" x2="205.3" y2="1077.6" stroke="url(#burstGrad)" stroke-width="0.69" opacity="0.24" stroke-linecap="round"></line>
<line x1="800" y1="940" x2="407.8" y2="-246.4" stroke="url(#burstGrad)" stroke-width="1.05" opacity="0.65" stroke-linecap="round"></line>
<line x1="800" y1="940" x2="378.5" y2="-249.8" stroke="url(#burstGrad)" stroke-width="0.83" opacity="0.56" stroke-linecap="round"></line>
<line x1="800" y1="940" x2="945.7" y2="228.7" stroke="url(#burstGrad)" stroke-width="0.91" opacity="0.37" stroke-linecap="round"></line>
<line x1="800" y1="940" x2="100.4" y2="800.6" stroke="url(#burstGrad)" stroke-width="0.97" opacity="0.19" stroke-linecap="round"></line>
<line x1="800" y1="940" x2="1614.4" y2="44.5" stroke="url(#burstGrad)" stroke-width="0.94" opacity="0.47" stroke-linecap="round"></line>
<line x1="800" y1="940" x2="2012.8" y2="751.8" stroke="url(#burstGrad)" stroke-width="1.07" opacity="0.28" stroke-linecap="round"></line>
<line x1="800" y1="940" x2="326.4" y2="938.1" stroke="url(#burstGrad)" stroke-width="0.82" opacity="0.41" stroke-linecap="round"></line>
<line x1="800" y1="940" x2="-228.6" y2="1591.2" stroke="url(#burstGrad)" stroke-width="0.77" opacity="0.68" stroke-linecap="round"></line>
<line x1="800" y1="940" x2="-379.6" y2="1060.7" stroke="url(#burstGrad)" stroke-width="0.57" opacity="0.49" stroke-linecap="round"></line>
<line x1="800" y1="940" x2="140.4" y2="547.5" stroke="url(#burstGrad)" stroke-width="1.09" opacity="0.72" stroke-linecap="round"></line>
<line x1="800" y1="940" x2="1948.8" y2="1358.7" stroke="url(#burstGrad)" stroke-width="0.82" opacity="0.61" stroke-linecap="round"></line>
<line x1="800" y1="940" x2="60.8" y2="-202.1" stroke="url(#burstGrad)" stroke-width="1.02" opacity="0.39" stroke-linecap="round"></line>
<line x1="800" y1="940" x2="693.4" y2="-250.1" stroke="url(#burstGrad)" stroke-width="0.64" opacity="0.53" stroke-linecap="round"></line>
<line x1="800" y1="940" x2="1308.2" y2="-107.3" stroke="url(#burstGrad)" stroke-width="1.06" opacity="0.20" stroke-linecap="round"></line>
<line x1="800" y1="940" x2="-121.1" y2="1172.4" stroke="url(#burstGrad)" stroke-width="0.72" opacity="0.49" stroke-linecap="round"></line>
<line x1="800" y1="940" x2="1623.4" y2="529.4" stroke="url(#burstGrad)" stroke-width="1.07" opacity="0.34" stroke-linecap="round"></line>
<line x1="800" y1="940" x2="628.2" y2="-3.3" stroke="url(#burstGrad)" stroke-width="0.88" opacity="0.50" stroke-linecap="round"></line>
<line x1="800" y1="940" x2="1218.1" y2="795.2" stroke="url(#burstGrad)" stroke-width="0.72" opacity="0.18" stroke-linecap="round"></line>
<line x1="800" y1="940" x2="185.8" y2="650.9" stroke="url(#burstGrad)" stroke-width="0.70" opacity="0.64" stroke-linecap="round"></line>
<line x1="800" y1="940" x2="-540.9" y2="835.0" stroke="url(#burstGrad)" stroke-width="0.80" opacity="0.38" stroke-linecap="round"></line>
<line x1="800" y1="940" x2="1919.0" y2="1270.2" stroke="url(#burstGrad)" stroke-width="0.98" opacity="0.54" stroke-linecap="round"></line>
<line x1="800" y1="940" x2="208.8" y2="-298.6" stroke="url(#burstGrad)" stroke-width="0.57" opacity="0.31" stroke-linecap="round"></line>
<line x1="800" y1="940" x2="1344.9" y2="753.3" stroke="url(#burstGrad)" stroke-width="0.76" opacity="0.33" stroke-linecap="round"></line>
<line x1="800" y1="940" x2="591.7" y2="125.9" stroke="url(#burstGrad)" stroke-width="0.90" opacity="0.40" stroke-linecap="round"></line>
<line x1="800" y1="940" x2="325.1" y2="-156.0" stroke="url(#burstGrad)" stroke-width="0.63" opacity="0.39" stroke-linecap="round"></line>
<line x1="800" y1="940" x2="-418.7" y2="538.0" stroke="url(#burstGrad)" stroke-width="0.72" opacity="0.30" stroke-linecap="round"></line>
<line x1="800" y1="940" x2="385.8" y2="-260.1" stroke="url(#burstGrad)" stroke-width="0.99" opacity="0.28" stroke-linecap="round"></line>
<line x1="800" y1="940" x2="-24.0" y2="708.1" stroke="url(#burstGrad)" stroke-width="0.85" opacity="0.28" stroke-linecap="round"></line>
<line x1="800" y1="940" x2="593.5" y2="421.5" stroke="url(#burstGrad)" stroke-width="0.63" opacity="0.27" stroke-linecap="round"></line>
<line x1="800" y1="940" x2="1433.9" y2="1022.7" stroke="url(#burstGrad)" stroke-width="0.65" opacity="0.67" stroke-linecap="round"></line>
<line x1="800" y1="940" x2="700.6" y2="-239.7" stroke="url(#burstGrad)" stroke-width="0.62" opacity="0.49" stroke-linecap="round"></line>
<line x1="800" y1="940" x2="-56.4" y2="1797.7" stroke="url(#burstGrad)" stroke-width="1.00" opacity="0.72" stroke-linecap="round"></line>
<line x1="800" y1="940" x2="556.0" y2="296.8" stroke="url(#burstGrad)" stroke-width="0.94" opacity="0.44" stroke-linecap="round"></line>
<line x1="800" y1="940" x2="92.5" y2="-75.3" stroke="url(#burstGrad)" stroke-width="1.00" opacity="0.42" stroke-linecap="round"></line>
<line x1="800" y1="940" x2="157.4" y2="-77.8" stroke="url(#burstGrad)" stroke-width="0.68" opacity="0.51" stroke-linecap="round"></line>
<line x1="800" y1="940" x2="-374.7" y2="411.9" stroke="url(#burstGrad)" stroke-width="0.71" opacity="0.63" stroke-linecap="round"></line>
<line x1="800" y1="940" x2="1596.5" y2="362.3" stroke="url(#burstGrad)" stroke-width="0.85" opacity="0.59" stroke-linecap="round"></line>
<line x1="800" y1="940" x2="-566.9" y2="1019.4" stroke="url(#burstGrad)" stroke-width="0.72" opacity="0.70" stroke-linecap="round"></line>
  </g>
  <g>
<circle cx="150.5" cy="602.7" r="3.3" fill="#4A7BF7" opacity="0.67"></circle>
<circle cx="707.0" cy="-30.9" r="3.8" fill="#4A7BF7" opacity="0.33"></circle>
<circle cx="16.0" cy="797.3" r="3.1" fill="#4A7BF7" opacity="0.25"></circle>
<circle cx="1042.0" cy="1207.1" r="2.6" fill="#4A7BF7" opacity="0.23"></circle>
<circle cx="1272.6" cy="890.1" r="2.2" fill="#4A7BF7" opacity="0.57"></circle>
<circle cx="1257.2" cy="583.5" r="2.2" fill="#4A7BF7" opacity="0.46"></circle>
<circle cx="1222.4" cy="653.0" r="3.4" fill="#4A7BF7" opacity="0.35"></circle>
<circle cx="-123.3" cy="1455.8" r="2.0" fill="#4A7BF7" opacity="0.48"></circle>
<circle cx="279.1" cy="546.1" r="1.6" fill="#4A7BF7" opacity="0.33"></circle>
<circle cx="1379.7" cy="328.2" r="2.7" fill="#4A7BF7" opacity="0.47"></circle>
<circle cx="1046.8" cy="-347.0" r="3.0" fill="#4A7BF7" opacity="0.55"></circle>
<circle cx="336.3" cy="206.4" r="3.9" fill="#4A7BF7" opacity="0.35"></circle>
<circle cx="1617.2" cy="116.7" r="3.1" fill="#4A7BF7" opacity="0.54"></circle>
<circle cx="1711.7" cy="1958.6" r="2.3" fill="#4A7BF7" opacity="0.21"></circle>
<circle cx="-283.1" cy="956.5" r="3.5" fill="#4A7BF7" opacity="0.47"></circle>
<circle cx="674.6" cy="439.2" r="1.6" fill="#4A7BF7" opacity="0.53"></circle>
<circle cx="-199.8" cy="1584.4" r="2.3" fill="#4A7BF7" opacity="0.47"></circle>
<circle cx="-223.7" cy="233.6" r="3.0" fill="#4A7BF7" opacity="0.64"></circle>
<circle cx="-121.1" cy="951.5" r="3.3" fill="#4A7BF7" opacity="0.38"></circle>
<circle cx="411.2" cy="1217.8" r="2.8" fill="#4A7BF7" opacity="0.23"></circle>
<circle cx="2078.8" cy="1233.0" r="2.0" fill="#4A7BF7" opacity="0.31"></circle>
<circle cx="235.7" cy="12.4" r="2.8" fill="#4A7BF7" opacity="0.59"></circle>
<circle cx="2072.2" cy="1214.7" r="3.6" fill="#4A7BF7" opacity="0.50"></circle>
<circle cx="1689.4" cy="74.0" r="2.9" fill="#4A7BF7" opacity="0.47"></circle>
<circle cx="112.6" cy="138.1" r="2.4" fill="#4A7BF7" opacity="0.57"></circle>
<circle cx="222.7" cy="792.7" r="1.9" fill="#4A7BF7" opacity="0.19"></circle>
<circle cx="1718.1" cy="777.0" r="3.0" fill="#4A7BF7" opacity="0.55"></circle>
<circle cx="1385.6" cy="524.9" r="2.0" fill="#4A7BF7" opacity="0.29"></circle>
<circle cx="1944.1" cy="716.5" r="2.6" fill="#4A7BF7" opacity="0.30"></circle>
<circle cx="-320.6" cy="686.0" r="1.9" fill="#4A7BF7" opacity="0.52"></circle>
<circle cx="1554.5" cy="301.5" r="3.8" fill="#4A7BF7" opacity="0.23"></circle>
<circle cx="-91.0" cy="443.3" r="3.0" fill="#4A7BF7" opacity="0.26"></circle>
<circle cx="1393.3" cy="144.5" r="2.2" fill="#4A7BF7" opacity="0.32"></circle>
<circle cx="60.1" cy="686.5" r="2.5" fill="#4A7BF7" opacity="0.34"></circle>
<circle cx="1794.1" cy="1095.9" r="2.7" fill="#4A7BF7" opacity="0.55"></circle>
<circle cx="-169.1" cy="1674.8" r="3.6" fill="#4A7BF7" opacity="0.45"></circle>
<circle cx="1803.3" cy="1041.9" r="3.1" fill="#4A7BF7" opacity="0.58"></circle>
<circle cx="1752.4" cy="471.2" r="1.7" fill="#4A7BF7" opacity="0.61"></circle>
<circle cx="664.5" cy="6.4" r="3.2" fill="#4A7BF7" opacity="0.32"></circle>
<circle cx="1093.1" cy="478.2" r="2.8" fill="#4A7BF7" opacity="0.38"></circle>
<circle cx="1911.3" cy="991.5" r="2.2" fill="#4A7BF7" opacity="0.40"></circle>
<circle cx="1168.1" cy="102.6" r="3.4" fill="#4A7BF7" opacity="0.43"></circle>
<circle cx="1600.5" cy="-152.3" r="3.9" fill="#4A7BF7" opacity="0.23"></circle>
<circle cx="1894.1" cy="931.0" r="4.1" fill="#4A7BF7" opacity="0.38"></circle>
<circle cx="950.9" cy="-130.2" r="4.1" fill="#4A7BF7" opacity="0.20"></circle>
<circle cx="1185.2" cy="928.8" r="3.6" fill="#4A7BF7" opacity="0.59"></circle>
<circle cx="15.7" cy="444.5" r="2.0" fill="#4A7BF7" opacity="0.53"></circle>
<circle cx="-451.7" cy="511.9" r="2.4" fill="#4A7BF7" opacity="0.64"></circle>
<circle cx="1381.6" cy="581.5" r="1.7" fill="#4A7BF7" opacity="0.39"></circle>
<circle cx="184.8" cy="-272.6" r="3.4" fill="#4A7BF7" opacity="0.26"></circle>
<circle cx="35.0" cy="680.5" r="3.3" fill="#4A7BF7" opacity="0.66"></circle>
<circle cx="1681.4" cy="776.7" r="3.2" fill="#4A7BF7" opacity="0.62"></circle>
<circle cx="534.7" cy="307.8" r="2.9" fill="#4A7BF7" opacity="0.59"></circle>
<circle cx="1387.2" cy="1898.5" r="4.0" fill="#4A7BF7" opacity="0.21"></circle>
<circle cx="706.0" cy="-75.4" r="2.7" fill="#4A7BF7" opacity="0.20"></circle>
<circle cx="-402.5" cy="275.5" r="2.9" fill="#4A7BF7" opacity="0.43"></circle>
<circle cx="-497.8" cy="955.1" r="4.2" fill="#4A7BF7" opacity="0.29"></circle>
<circle cx="1800.3" cy="770.2" r="2.5" fill="#4A7BF7" opacity="0.65"></circle>
<circle cx="1460.8" cy="483.7" r="3.2" fill="#4A7BF7" opacity="0.25"></circle>
<circle cx="478.2" cy="-345.0" r="3.7" fill="#4A7BF7" opacity="0.35"></circle>
<circle cx="548.9" cy="1691.4" r="2.5" fill="#4A7BF7" opacity="0.36"></circle>
<circle cx="1039.5" cy="739.0" r="3.6" fill="#4A7BF7" opacity="0.53"></circle>
<circle cx="-331.1" cy="733.1" r="2.4" fill="#4A7BF7" opacity="0.33"></circle>
<circle cx="1752.6" cy="211.5" r="2.4" fill="#4A7BF7" opacity="0.33"></circle>
<circle cx="524.3" cy="577.0" r="3.8" fill="#4A7BF7" opacity="0.19"></circle>
<circle cx="1176.8" cy="1277.8" r="2.6" fill="#4A7BF7" opacity="0.20"></circle>
<circle cx="2050.7" cy="944.2" r="2.0" fill="#4A7BF7" opacity="0.51"></circle>
<circle cx="670.9" cy="95.0" r="3.6" fill="#4A7BF7" opacity="0.22"></circle>
<circle cx="1118.3" cy="722.4" r="4.1" fill="#4A7BF7" opacity="0.42"></circle>
<circle cx="-96.7" cy="724.5" r="3.7" fill="#4A7BF7" opacity="0.35"></circle>
<circle cx="1975.2" cy="548.4" r="2.9" fill="#4A7BF7" opacity="0.59"></circle>
<circle cx="1358.9" cy="170.8" r="4.1" fill="#4A7BF7" opacity="0.45"></circle>
<circle cx="212.9" cy="1696.4" r="2.1" fill="#4A7BF7" opacity="0.31"></circle>
<circle cx="1017.9" cy="120.3" r="3.9" fill="#4A7BF7" opacity="0.20"></circle>
<circle cx="802.3" cy="188.6" r="2.4" fill="#4A7BF7" opacity="0.22"></circle>
<circle cx="-105.4" cy="1834.4" r="2.1" fill="#4A7BF7" opacity="0.36"></circle>
<circle cx="676.7" cy="-344.2" r="4.0" fill="#4A7BF7" opacity="0.57"></circle>
<circle cx="-2.3" cy="609.2" r="3.8" fill="#4A7BF7" opacity="0.23"></circle>
<circle cx="-207.9" cy="791.8" r="3.5" fill="#4A7BF7" opacity="0.45"></circle>
<circle cx="723.3" cy="111.6" r="2.8" fill="#4A7BF7" opacity="0.63"></circle>
<circle cx="919.6" cy="-206.6" r="3.1" fill="#4A7BF7" opacity="0.42"></circle>
<circle cx="703.6" cy="50.2" r="3.6" fill="#4A7BF7" opacity="0.54"></circle>
<circle cx="794.6" cy="-147.3" r="2.7" fill="#4A7BF7" opacity="0.33"></circle>
<circle cx="972.9" cy="339.4" r="2.7" fill="#4A7BF7" opacity="0.23"></circle>
<circle cx="1463.7" cy="379.6" r="2.1" fill="#4A7BF7" opacity="0.59"></circle>
<circle cx="679.8" cy="-163.3" r="3.6" fill="#4A7BF7" opacity="0.66"></circle>
<circle cx="-337.4" cy="1007.8" r="2.2" fill="#4A7BF7" opacity="0.67"></circle>
<circle cx="1628.4" cy="683.1" r="4.0" fill="#4A7BF7" opacity="0.55"></circle>
<circle cx="277.8" cy="291.4" r="2.6" fill="#4A7BF7" opacity="0.54"></circle>
<circle cx="502.3" cy="380.9" r="4.1" fill="#4A7BF7" opacity="0.64"></circle>
<circle cx="1037.5" cy="170.0" r="3.8" fill="#4A7BF7" opacity="0.37"></circle>
<circle cx="1845.9" cy="661.7" r="2.1" fill="#4A7BF7" opacity="0.45"></circle>
<circle cx="1556.2" cy="1635.5" r="2.9" fill="#4A7BF7" opacity="0.63"></circle>
<circle cx="330.3" cy="668.4" r="4.0" fill="#4A7BF7" opacity="0.55"></circle>
<circle cx="54.3" cy="476.7" r="1.9" fill="#4A7BF7" opacity="0.34"></circle>
<circle cx="1969.7" cy="977.4" r="3.7" fill="#4A7BF7" opacity="0.58"></circle>
<circle cx="470.8" cy="-154.2" r="1.7" fill="#4A7BF7" opacity="0.50"></circle>
<circle cx="-216.6" cy="692.7" r="1.7" fill="#4A7BF7" opacity="0.69"></circle>
<circle cx="1856.7" cy="672.5" r="3.6" fill="#4A7BF7" opacity="0.46"></circle>
<circle cx="-506.1" cy="1220.9" r="2.0" fill="#4A7BF7" opacity="0.19"></circle>
<circle cx="841.1" cy="450.5" r="4.1" fill="#4A7BF7" opacity="0.42"></circle>
<circle cx="205.3" cy="1077.6" r="2.5" fill="#4A7BF7" opacity="0.22"></circle>
<circle cx="407.8" cy="-246.4" r="2.0" fill="#4A7BF7" opacity="0.62"></circle>
<circle cx="378.5" cy="-249.8" r="3.4" fill="#4A7BF7" opacity="0.53"></circle>
<circle cx="945.7" cy="228.7" r="2.6" fill="#4A7BF7" opacity="0.35"></circle>
<circle cx="100.4" cy="800.6" r="4.0" fill="#4A7BF7" opacity="0.18"></circle>
<circle cx="1614.4" cy="44.5" r="2.1" fill="#4A7BF7" opacity="0.45"></circle>
<circle cx="2012.8" cy="751.8" r="3.8" fill="#4A7BF7" opacity="0.27"></circle>
<circle cx="326.4" cy="938.1" r="2.7" fill="#4A7BF7" opacity="0.39"></circle>
<circle cx="-228.6" cy="1591.2" r="2.7" fill="#4A7BF7" opacity="0.65"></circle>
<circle cx="-379.6" cy="1060.7" r="3.3" fill="#4A7BF7" opacity="0.47"></circle>
<circle cx="140.4" cy="547.5" r="3.1" fill="#4A7BF7" opacity="0.69"></circle>
<circle cx="1948.8" cy="1358.7" r="2.2" fill="#4A7BF7" opacity="0.58"></circle>
<circle cx="60.8" cy="-202.1" r="3.4" fill="#4A7BF7" opacity="0.37"></circle>
<circle cx="693.4" cy="-250.1" r="2.3" fill="#4A7BF7" opacity="0.50"></circle>
<circle cx="1308.2" cy="-107.3" r="3.1" fill="#4A7BF7" opacity="0.19"></circle>
<circle cx="-121.1" cy="1172.4" r="3.9" fill="#4A7BF7" opacity="0.46"></circle>
<circle cx="1623.4" cy="529.4" r="2.8" fill="#4A7BF7" opacity="0.32"></circle>
<circle cx="628.2" cy="-3.3" r="2.6" fill="#4A7BF7" opacity="0.48"></circle>
<circle cx="1218.1" cy="795.2" r="2.1" fill="#4A7BF7" opacity="0.17"></circle>
<circle cx="185.8" cy="650.9" r="1.6" fill="#4A7BF7" opacity="0.61"></circle>
<circle cx="-540.9" cy="835.0" r="2.9" fill="#4A7BF7" opacity="0.36"></circle>
<circle cx="1919.0" cy="1270.2" r="2.8" fill="#4A7BF7" opacity="0.51"></circle>
<circle cx="208.8" cy="-298.6" r="3.8" fill="#4A7BF7" opacity="0.29"></circle>
<circle cx="1344.9" cy="753.3" r="4.0" fill="#4A7BF7" opacity="0.31"></circle>
<circle cx="591.7" cy="125.9" r="3.3" fill="#4A7BF7" opacity="0.38"></circle>
<circle cx="325.1" cy="-156.0" r="4.0" fill="#4A7BF7" opacity="0.37"></circle>
<circle cx="-418.7" cy="538.0" r="3.0" fill="#4A7BF7" opacity="0.29"></circle>
<circle cx="385.8" cy="-260.1" r="3.4" fill="#4A7BF7" opacity="0.26"></circle>
<circle cx="-24.0" cy="708.1" r="2.0" fill="#4A7BF7" opacity="0.26"></circle>
<circle cx="593.5" cy="421.5" r="2.3" fill="#4A7BF7" opacity="0.25"></circle>
<circle cx="1433.9" cy="1022.7" r="2.8" fill="#4A7BF7" opacity="0.64"></circle>
<circle cx="700.6" cy="-239.7" r="2.7" fill="#4A7BF7" opacity="0.46"></circle>
<circle cx="-56.4" cy="1797.7" r="1.7" fill="#4A7BF7" opacity="0.68"></circle>
<circle cx="556.0" cy="296.8" r="4.0" fill="#4A7BF7" opacity="0.42"></circle>
<circle cx="92.5" cy="-75.3" r="3.3" fill="#4A7BF7" opacity="0.40"></circle>
<circle cx="157.4" cy="-77.8" r="3.5" fill="#4A7BF7" opacity="0.48"></circle>
<circle cx="-374.7" cy="411.9" r="4.0" fill="#4A7BF7" opacity="0.60"></circle>
<circle cx="1596.5" cy="362.3" r="3.6" fill="#4A7BF7" opacity="0.56"></circle>
<circle cx="-566.9" cy="1019.4" r="2.3" fill="#4A7BF7" opacity="0.66"></circle>
  </g>
</svg>